<svg id="visual" viewBox="0 0 900 600" width="900" height="600" xmlns="http://www.w3.org/2000/svg" xmlns:xlink="http://www.w3.org/1999/xlink" version="1.1"><g stroke-width="1" stroke-linejoin="bevel"><path d="M420 334L391 394L504 417Z" fill="#277297" stroke="#277297"></path><path d="M504 417L538 307L420 334Z" fill="#00101c" stroke="#00101c"></path><path d="M510 537L561 431L504 417Z" fill="#15384f" stroke="#15384f"></path><path d="M504 417L561 431L538 307Z" fill="#112e42" stroke="#112e42"></path><path d="M391 394L431 520L504 417Z" fill="#205a7a" stroke="#205a7a"></path><path d="M697 334L561 275L538 307Z" fill="#00101c" stroke="#00101c"></path><path d="M538 307L473 224L420 334Z" fill="#081a28" stroke="#081a28"></path><path d="M431 520L510 537L504 417Z" fill="#0c2435" stroke="#0c2435"></path><path d="M561 275L473 224L538 307Z" fill="#205a7a" stroke="#205a7a"></path><path d="M296 268L275 428L391 394Z" fill="#297ea6" stroke="#297ea6"></path><path d="M473 224L401 230L420 334Z" fill="#112e42" stroke="#112e42"></path><path d="M510 537L575 504L561 431Z" fill="#00101c" stroke="#00101c"></path><path d="M697 334L600 234L561 275Z" fill="#0c2435" stroke="#0c2435"></path><path d="M296 268L391 394L420 334Z" fill="#0c2435" stroke="#0c2435"></path><path d="M391 394L295 522L431 520Z" fill="#112e42" stroke="#112e42"></path><path d="M401 230L296 268L420 334Z" fill="#0c2435" stroke="#0c2435"></path><path d="M275 428L295 522L391 394Z" fill="#081a28" stroke="#081a28"></path><path d="M431 520L407 600L510 537Z" fill="#277297" stroke="#277297"></path><path d="M697 334L538 307L561 431Z" fill="#246688" stroke="#246688"></path><path d="M561 275L600 234L473 224Z" fill="#1d4e6b" stroke="#1d4e6b"></path><path d="M295 522L407 600L431 520Z" fill="#0c2435" stroke="#0c2435"></path><path d="M510 537L523 600L575 504Z" fill="#0c2435" stroke="#0c2435"></path><path d="M407 600L523 600L510 537Z" fill="#0c2435" stroke="#0c2435"></path><path d="M296 268L231 305L275 428Z" fill="#277297" stroke="#277297"></path><path d="M275 428L191 510L295 522Z" fill="#297ea6" stroke="#297ea6"></path><path d="M608 119L431 136L473 224Z" fill="#0c2435" stroke="#0c2435"></path><path d="M473 224L431 136L401 230Z" fill="#277297" stroke="#277297"></path><path d="M401 230L277 191L296 268Z" fill="#15384f" stroke="#15384f"></path><path d="M296 268L182 222L231 305Z" fill="#0c2435" stroke="#0c2435"></path><path d="M703 364L561 431L575 504Z" fill="#15384f" stroke="#15384f"></path><path d="M703 364L697 334L561 431Z" fill="#112e42" stroke="#112e42"></path><path d="M714 533L703 364L575 504Z" fill="#246688" stroke="#246688"></path><path d="M231 305L190 392L275 428Z" fill="#205a7a" stroke="#205a7a"></path><path d="M335 128L277 191L401 230Z" fill="#112e42" stroke="#112e42"></path><path d="M231 305L105 290L190 392Z" fill="#1d4e6b" stroke="#1d4e6b"></path><path d="M295 522L283 600L407 600Z" fill="#205a7a" stroke="#205a7a"></path><path d="M191 510L283 600L295 522Z" fill="#00101c" stroke="#00101c"></path><path d="M523 600L621 600L575 504Z" fill="#1d4e6b" stroke="#1d4e6b"></path><path d="M431 136L335 128L401 230Z" fill="#0c2435" stroke="#0c2435"></path><path d="M190 392L191 510L275 428Z" fill="#112e42" stroke="#112e42"></path><path d="M621 600L714 533L575 504Z" fill="#081a28" stroke="#081a28"></path><path d="M733 220L608 119L600 234Z" fill="#277297" stroke="#277297"></path><path d="M600 234L608 119L473 224Z" fill="#277297" stroke="#277297"></path><path d="M431 136L406 0L335 128Z" fill="#277297" stroke="#277297"></path><path d="M190 62L182 222L277 191Z" fill="#246688" stroke="#246688"></path><path d="M277 191L182 222L296 268Z" fill="#1d4e6b" stroke="#1d4e6b"></path><path d="M190 392L67 505L191 510Z" fill="#19435d" stroke="#19435d"></path><path d="M621 600L685 600L714 533Z" fill="#277297" stroke="#277297"></path><path d="M608 119L469 68L431 136Z" fill="#00101c" stroke="#00101c"></path><path d="M697 334L733 220L600 234Z" fill="#277297" stroke="#277297"></path><path d="M799 307L733 220L697 334Z" fill="#205a7a" stroke="#205a7a"></path><path d="M799 307L697 334L703 364Z" fill="#205a7a" stroke="#205a7a"></path><path d="M774 509L703 364L714 533Z" fill="#297ea6" stroke="#297ea6"></path><path d="M774 509L796 384L703 364Z" fill="#277297" stroke="#277297"></path><path d="M835 600L774 509L714 533Z" fill="#15384f" stroke="#15384f"></path><path d="M796 384L799 307L703 364Z" fill="#205a7a" stroke="#205a7a"></path><path d="M182 222L105 290L231 305Z" fill="#081a28" stroke="#081a28"></path><path d="M138 600L162 600L191 510Z" fill="#00101c" stroke="#00101c"></path><path d="M191 510L162 600L283 600Z" fill="#1d4e6b" stroke="#1d4e6b"></path><path d="M182 222L115 230L105 290Z" fill="#19435d" stroke="#19435d"></path><path d="M75 105L115 230L182 222Z" fill="#19435d" stroke="#19435d"></path><path d="M67 505L138 600L191 510Z" fill="#19435d" stroke="#19435d"></path><path d="M0 392L67 382L0 291Z" fill="#15384f" stroke="#15384f"></path><path d="M105 290L67 382L190 392Z" fill="#112e42" stroke="#112e42"></path><path d="M592 0L465 0L469 68Z" fill="#246688" stroke="#246688"></path><path d="M469 68L406 0L431 136Z" fill="#297ea6" stroke="#297ea6"></path><path d="M335 128L190 62L277 191Z" fill="#112e42" stroke="#112e42"></path><path d="M592 0L469 68L608 119Z" fill="#1d4e6b" stroke="#1d4e6b"></path><path d="M465 0L406 0L469 68Z" fill="#112e42" stroke="#112e42"></path><path d="M799 307L816 239L733 220Z" fill="#297ea6" stroke="#297ea6"></path><path d="M733 220L714 91L608 119Z" fill="#0c2435" stroke="#0c2435"></path><path d="M900 283L816 239L799 307Z" fill="#081a28" stroke="#081a28"></path><path d="M810 102L714 91L733 220Z" fill="#081a28" stroke="#081a28"></path><path d="M67 382L67 505L190 392Z" fill="#081a28" stroke="#081a28"></path><path d="M714 91L592 0L608 119Z" fill="#19435d" stroke="#19435d"></path><path d="M282 0L190 62L335 128Z" fill="#277297" stroke="#277297"></path><path d="M406 0L282 0L335 128Z" fill="#277297" stroke="#277297"></path><path d="M685 600L835 600L714 533Z" fill="#00101c" stroke="#00101c"></path><path d="M900 504L900 361L796 384Z" fill="#00101c" stroke="#00101c"></path><path d="M796 384L900 361L799 307Z" fill="#277297" stroke="#277297"></path><path d="M900 504L796 384L774 509Z" fill="#1d4e6b" stroke="#1d4e6b"></path><path d="M67 382L0 462L67 505Z" fill="#00101c" stroke="#00101c"></path><path d="M0 291L67 382L105 290Z" fill="#081a28" stroke="#081a28"></path><path d="M0 291L105 290L0 230Z" fill="#19435d" stroke="#19435d"></path><path d="M816 239L810 102L733 220Z" fill="#277297" stroke="#277297"></path><path d="M714 91L713 0L592 0Z" fill="#0c2435" stroke="#0c2435"></path><path d="M900 205L810 102L816 239Z" fill="#205a7a" stroke="#205a7a"></path><path d="M0 392L0 462L67 382Z" fill="#00101c" stroke="#00101c"></path><path d="M67 505L0 600L138 600Z" fill="#19435d" stroke="#19435d"></path><path d="M900 361L900 283L799 307Z" fill="#00101c" stroke="#00101c"></path><path d="M0 230L105 290L115 230Z" fill="#0c2435" stroke="#0c2435"></path><path d="M282 0L198 0L190 62Z" fill="#1d4e6b" stroke="#1d4e6b"></path><path d="M190 62L75 105L182 222Z" fill="#277297" stroke="#277297"></path><path d="M835 600L900 504L774 509Z" fill="#205a7a" stroke="#205a7a"></path><path d="M810 102L713 0L714 91Z" fill="#112e42" stroke="#112e42"></path><path d="M62 0L75 105L190 62Z" fill="#0c2435" stroke="#0c2435"></path><path d="M75 105L0 230L115 230Z" fill="#246688" stroke="#246688"></path><path d="M900 283L900 205L816 239Z" fill="#1d4e6b" stroke="#1d4e6b"></path><path d="M835 600L900 600L900 504Z" fill="#277297" stroke="#277297"></path><path d="M0 462L0 600L67 505Z" fill="#19435d" stroke="#19435d"></path><path d="M900 205L900 128L810 102Z" fill="#00101c" stroke="#00101c"></path><path d="M810 102L830 0L713 0Z" fill="#1d4e6b" stroke="#1d4e6b"></path><path d="M0 0L0 119L75 105Z" fill="#15384f" stroke="#15384f"></path><path d="M75 105L0 119L0 230Z" fill="#0c2435" stroke="#0c2435"></path><path d="M900 0L830 0L810 102Z" fill="#297ea6" stroke="#297ea6"></path><path d="M198 0L62 0L190 62Z" fill="#19435d" stroke="#19435d"></path><path d="M900 128L900 0L810 102Z" fill="#00101c" stroke="#00101c"></path><path d="M62 0L0 0L75 105Z" fill="#277297" stroke="#277297"></path></g></svg>